<svg xmlns="http://www.w3.org/2000/svg" viewBox="0 0 960 540" role="img" aria-labelledby="title desc">
  <title id="title">Gazebo robot simulation graphic</title>
  <desc id="desc">A compact abstract diagram for robot simulation and environments.</desc>
  <rect width="960" height="540" fill="#eef2ef"/>
  <g fill="none" stroke="#cad6d2" stroke-width="4">
    <path d="M140 394h680"/>
    <path d="M214 394l82-154h132l82 154"/>
    <path d="M548 394V196h184v198"/>
    <path d="M594 240h92M594 288h92M594 336h92"/>
  </g>
  <g fill="#ffffff" stroke="#dfe5e7" stroke-width="3">
    <rect x="246" y="218" width="150" height="88" rx="10"/>
    <circle cx="282" cy="394" r="42"/>
    <circle cx="442" cy="394" r="42"/>
    <rect x="548" y="196" width="184" height="198" rx="12"/>
  </g>
  <g fill="#0f625f">
    <circle cx="282" cy="394" r="14"/>
    <circle cx="442" cy="394" r="14"/>
    <rect x="594" y="240" width="92" height="12" rx="6"/>
    <rect x="594" y="288" width="92" height="12" rx="6"/>
    <rect x="594" y="336" width="92" height="12" rx="6"/>
  </g>
  <text x="134" y="126" fill="#171b20" font-family="Inter, Arial, sans-serif" font-size="76" font-weight="800">Gazebo</text>
  <text x="138" y="166" fill="#65717d" font-family="Inter, Arial, sans-serif" font-size="24" font-weight="700">robot simulation ecosystem</text>
</svg>
